<?xml version="1.0" encoding="UTF-8"?>
<svg width="72px" height="68px" viewBox="0 0 72 68" version="1.1" xmlns="http://www.w3.org/2000/svg" xmlns:xlink="http://www.w3.org/1999/xlink">
    <!-- Generator: Sketch 45.1 (43504) - http://www.bohemiancoding.com/sketch -->
    <title>icon - basics@1x</title>
    <desc>Created with Sketch.</desc>
    <defs></defs>
    <g id="Symbols" stroke="none" stroke-width="1" fill="none" fill-rule="evenodd">
        <g id="FAQ-Icon-/-Basics-Normal" transform="translate(-12.000000, 0.000000)" fill="#ADB9CA">
            <g id="icon---basics" transform="translate(12.000000, 0.000000)">
                <path d="M2,38 L2,66 L30,66 L30,38 L2,38 Z M0,36 L32,36 L32,68 L0,68 L0,36 Z" id="Rectangle-5" fill-rule="nonzero"></path>
                <path d="M23,2 L23,30 L51,30 L51,2 L23,2 Z M21,0 L53,0 L53,32 L21,32 L21,0 Z" id="Rectangle-5" fill-rule="nonzero"></path>
                <path d="M42,66 L70,66 L70,38 L42,38 L42,66 Z M40,36 L72,36 L72,68 L40,68 L40,36 Z" id="Rectangle-5" fill-rule="nonzero"></path>
                <path d="M32.9160164,21 L36.2620164,10.99 L38.6980164,10.99 L42.0020164,21 L40.0700164,21 L39.2720164,18.522 L35.4500164,18.522 L34.6660164,21 L32.9160164,21 Z M37.3680164,12.516 L35.8840164,17.164 L38.8380164,17.164 L37.3680164,12.516 Z" id="A"></path>
                <path d="M12.5182459,57 L12.5182459,46.99 L16.1022459,46.99 C18.1602459,46.99 19.3782459,47.774 19.3782459,49.594 L19.3782459,49.65 C19.3782459,50.644 18.9302459,51.428 17.7962459,51.778 C19.1542459,52.072 19.7982459,52.814 19.7982459,54.144 L19.7982459,54.2 C19.7982459,56.062 18.5662459,57 16.3682459,57 L12.5182459,57 Z M14.3382459,55.67 L16.1442459,55.67 C17.3902459,55.67 17.9642459,55.11 17.9642459,54.074 L17.9642459,54.018 C17.9642459,52.982 17.3902459,52.464 16.0182459,52.464 L14.3382459,52.464 L14.3382459,55.67 Z M14.3382459,51.204 L15.8782459,51.204 C17.1102459,51.204 17.5862459,50.756 17.5862459,49.734 L17.5862459,49.678 C17.5862459,48.726 17.0402459,48.32 15.8502459,48.32 L14.3382459,48.32 L14.3382459,51.204 Z" id="B"></path>
                <path d="M57.3757869,57.14 C59.7557869,57.14 61.4637869,55.922 61.7577869,53.514 L59.9377869,53.514 C59.7417869,54.928 58.7617869,55.628 57.3757869,55.628 C55.5277869,55.628 54.4497869,54.298 54.4497869,52.044 L54.4497869,51.932 C54.4497869,49.692 55.5977869,48.32 57.3617869,48.32 C58.8037869,48.32 59.5457869,49.006 59.7557869,50.336 L61.6457869,50.336 C61.4217869,47.984 59.6437869,46.836 57.3477869,46.836 C54.5617869,46.836 52.4897869,48.936 52.4897869,51.946 L52.4897869,52.058 C52.4897869,55.138 54.2397869,57.14 57.3757869,57.14 Z" id="C"></path>
            </g>
        </g>
    </g>
</svg>